<?xml version="1.0" encoding="utf-8"?>
<!-- Generator: Adobe Illustrator 19.2.0, SVG Export Plug-In . SVG Version: 6.00 Build 0)  -->
<svg xmlns="http://www.w3.org/2000/svg" xmlns:xlink="http://www.w3.org/1999/xlink" version="1.1" id="increaseanalysis"
	x="0px" y="0px" viewBox="0 0 213.1768 199.5494" enable-background="new 0 0 213.1768 199.5494" xml:space="preserve"
	width="512" height="512">
	<g>
		<rect x="10.0557" y="143.5494" fill="#1C71DA" width="8" height="56" />
		<rect x="26.0557" y="107.5494" fill="#1C71DA" width="8" height="92" />
		<rect x="42.0557" y="99.5494" fill="#1C71DA" width="8" height="99.6367" />
		<rect x="58.0557" y="87.5494" fill="#1C71DA" width="8" height="111.6367" />
		<rect x="74.0557" y="63.5494" fill="#1C71DA" width="8" height="136" />
		<rect x="90.0557" y="59.5494" fill="#1C71DA" width="8" height="140" />
		<rect x="106.0557" y="75.4791" fill="#1C71DA" width="8" height="124.0703" />
		<rect x="122.0557" y="91.5474" fill="#1C71DA" width="8" height="107.5586" />
		<rect x="138.0557" y="99.5474" fill="#1C71DA" width="8" height="99.5586" />
		<rect x="154.0557" y="143.5494" fill="#1C71DA" width="8" height="56" />
		<rect x="170.0557" y="127.5494" fill="#1C71DA" width="8" height="72" />
		<rect x="186.0557" y="139.356" fill="#1C71DA" width="8" height="60.1934" />
		<path fill="#1C71DA"
			d="M149.0085,40.4908l16.717-2.3496c2.1875-0.3066,3.7109-2.3301,3.4043-4.5176s-2.3125-3.7246-4.5176-3.4043   l-30.7852,4.3262c-1.0508,0.1484-2,0.707-2.6387,1.5527c-0.6387,0.8477-0.9141,1.9141-0.7656,2.9648l4.4746,31.832   c0.2812,1.998,1.9941,3.4434,3.9551,3.4434c0.1855,0,0.373-0.0117,0.5625-0.0391c2.1875-0.3066,3.7129-2.3301,3.4043-4.5176   l-3.7639-26.7754l69.3069,52.2266l4.8145-6.3887L149.0085,40.4908z" />
	</g>
</svg>