<?xml version="1.0" encoding="utf-8"?>
<!-- Generator: Adobe Illustrator 19.2.0, SVG Export Plug-In . SVG Version: 6.00 Build 0)  -->
<svg xmlns="http://www.w3.org/2000/svg" xmlns:xlink="http://www.w3.org/1999/xlink" version="1.1" id="maildistribute"
	x="0px" y="0px" viewBox="0 0 204.8027 195.8237" enable-background="new 0 0 204.8027 195.8237" xml:space="preserve"
	width="512" height="512">
	<g>
		<path fill="#D0E8FF"
			d="M52.186,42.2236L14.5818,8.2578c-1.5867,0.5391-2.7478,1.9902-2.7478,3.7461v73.9346L52.186,42.2236z" />
		<polygon fill="#D0E8FF" points="129.4395,8 26.2285,8 77.834,54.6094  " />
		<path fill="#D0E8FF"
			d="M141.0862,8.2578l-37.6042,33.9658l40.3521,43.7148V12.0039   C143.834,10.248,142.6729,8.7969,141.0862,8.2578z" />
		<path fill="#D0E8FF"
			d="M138.5461,92L97.5469,47.584L80.5137,62.9688C79.752,63.6562,78.7949,64,77.834,64   s-1.918-0.3438-2.6797-1.0312L58.1211,47.584L17.1218,92H138.5461z" />
		<path fill="#1C71DA"
			d="M151.834,87.9961V12.0039c0-6.5879-5.3501-11.9434-11.9395-11.9941C139.8735,0.0088,139.855,0,139.834,0   h-0.0312H15.8652H15.834c-0.021,0-0.0396,0.0088-0.0605,0.0098C9.1841,0.0605,3.834,5.416,3.834,12.0039v75.9922   C3.834,94.6152,9.2324,100,15.8652,100h123.9375C146.4355,100,151.834,94.6152,151.834,87.9961z M75.1543,62.9688   C75.916,63.6562,76.873,64,77.834,64s1.918-0.3438,2.6797-1.0312L97.5469,47.584L138.5461,92H17.1218l40.9993-44.416   L75.1543,62.9688z M143.834,85.9385l-40.3521-43.7148l37.6042-33.9658c1.5867,0.5391,2.7478,1.9902,2.7478,3.7461V85.9385z    M129.4395,8L77.834,54.6094L26.2285,8H129.4395z M14.5818,8.2578L52.186,42.2236L11.834,85.9385V12.0039   C11.834,10.248,12.9951,8.7969,14.5818,8.2578z" />
		<path fill="#1C71DA"
			d="M203.6309,129.1699l-16.9688-16.9707c-1.5625-1.5625-4.0938-1.5625-5.6562,0s-1.5625,4.0938,0,5.6562   L191.1489,128H113.834v8h77.311l-10.1392,10.1406c-1.5625,1.5625-1.5625,4.0938,0,5.6562   c0.7812,0.7812,1.8047,1.1719,2.8281,1.1719s2.0469-0.3906,2.8281-1.1719l16.9688-16.9707   C205.1934,133.2637,205.1934,130.7324,203.6309,129.1699z" />
		<path fill="#1C71DA"
			d="M58.6621,157.8555c1.5625-1.5625,1.5625-4.0938,0-5.6562s-4.0938-1.5625-5.6562,0l-16.9688,16.9707   c-1.5625,1.5625-1.5625,4.0938,0,5.6562l16.9688,16.9707c0.7812,0.7812,1.8047,1.1719,2.8281,1.1719s2.0469-0.3906,2.8281-1.1719   c1.5625-1.5625,1.5625-4.0938,0-5.6562L48.5229,176h77.311v-8H48.519L58.6621,157.8555z" />
	</g>
</svg>