<?xml version="1.0" encoding="utf-8"?>
<!-- Generator: Adobe Illustrator 19.2.0, SVG Export Plug-In . SVG Version: 6.00 Build 0)  -->
<svg xmlns="http://www.w3.org/2000/svg" xmlns:xlink="http://www.w3.org/1999/xlink" version="1.1" id="monitordrawing"
	x="0px" y="0px" viewBox="0 0 216 204.1777" enable-background="new 0 0 216 204.1777" xml:space="preserve" width="512"
	height="512">
	<g>
		<path fill="#1C71DA"
			d="M203.9727,16.1777H12.0273C5.3945,16.1777,0,21.5449,0,28.1426v108.0352v8v32h81.9353l-9.6111,22.4258   c-0.5312,1.2344-0.4023,2.6523,0.3359,3.7773c0.7422,1.1211,1.9961,1.7969,3.3398,1.7969h64c1.3438,0,2.5977-0.6758,3.3398-1.7969   c0.7383-1.125,0.8672-2.543,0.3359-3.7773l-9.6111-22.4258H216v-32v-8V28.1426C216,21.5449,210.6055,16.1777,203.9727,16.1777z    M133.9336,196.1777H82.0664l8.5703-20h34.7266L133.9336,196.1777z M208,168.1777h-80H88H8v-24h200V168.1777z M8,136.1777V28.1426   c0-2.1875,1.8047-3.9648,4.0273-3.9648h191.9453c2.2227,0,4.0273,1.7773,4.0273,3.9648v108.0352H8z" />
		<path fill="#1C71DA"
			d="M108,164.1777c4.4102,0,8-3.5898,8-8s-3.5898-8-8-8s-8,3.5898-8,8S103.5898,164.1777,108,164.1777z" />
		<path fill="#1C71DA"
			d="M196.0781,68.6934c-4.0195-0.6641-24.4023-3.5625-30.9297,5.1055c-1.6758,2.2266-3.332,5.543-5.2461,9.3828   c-3.8594,7.7422-9.6289,19.4648-15.0547,17.9258c-3.4492-0.9688-3.2422-4.6836-0.8047-16.1094   c1.1914-5.582,2.543-11.9062,2.543-18.1641c0-8.2109-3.3984-13.8164-9.0859-15c-8.0391-1.6914-17.1055,6.0547-23.0391,19.707   c-3.5898,8.2539-7.4883,11.5586-9.7422,11.0859c-1.8555-0.3867-4.8047-4.418-4.8047-13.5898   c0-22.2656-11.8281-39.0547-27.5156-39.0547c-2.2812,0-4.2617,0.8633-5.7344,2.4961c-4.1641,4.6211-3.168,14.2148-1.6602,28.7383   c1.7891,17.2188,4.0156,38.6484-3.0469,53.3789c-2.1953,4.5742-3.6836,5.9492-4.2227,6.3281   c-3.5312-2.5195-7.4688-20.9102-9.1758-28.8711c-1.2109-5.6523-2.2578-10.5352-3.3008-13.4062   c-1.4258-3.9297-4.0391-6.7148-7.5508-8.0469c-7.3359-2.7891-15.9492,1.6953-16.9023,2.2148   c-1.9414,1.0547-2.6641,3.4805-1.6094,5.4219c1.0469,1.9414,3.4805,2.6641,5.4219,1.6094c2.0039-1.0898,7.1406-2.9648,10.25-1.7656   c0.8359,0.3164,2.0391,1,2.875,3.3008c0.8516,2.3516,1.8945,7.207,2.9922,12.3438c4.4297,20.6641,7.9414,34.2812,16.1367,35.2539   c0.3008,0.0352,0.5938,0.0547,0.8828,0.0547c5.4883,0,9.125-6.1992,11.4141-10.9766c8.043-16.7695,5.6875-39.4453,3.793-57.668   c-0.9023-8.6797-2.1367-20.5703-0.5625-22.4062c10.9414,0,19.5156,13.6406,19.5156,31.0547   c0,11.7773,4.2812,19.9883,11.1758,21.4219c3.2852,0.6641,11.6406,0.5117,18.707-15.7305   c4.8906-11.2539,11.2852-15.6875,14.0742-15.0625c1.6484,0.3438,2.7148,3.1562,2.7148,7.168   c0,5.4141-1.2031,11.0469-2.3672,16.4922c-2.2305,10.4648-4.7617,22.3242,6.4648,25.4844   c11.6875,3.2734,19.0352-11.3555,24.375-22.0547c1.668-3.3438,3.2461-6.5039,4.4805-8.1445   c2.5586-3.4023,15.1445-3.3594,23.2305-2.0273c2.1367,0.3867,4.2344-1.1094,4.5977-3.293   C199.7266,71.1152,198.2578,69.0527,196.0781,68.6934z" />
	</g>
</svg>