<?xml version="1.0" encoding="utf-8"?>
<!-- Generator: Adobe Illustrator 19.2.0, SVG Export Plug-In . SVG Version: 6.00 Build 0)  -->
<svg xmlns="http://www.w3.org/2000/svg" xmlns:xlink="http://www.w3.org/1999/xlink" version="1.1" id="pinpointstar"
	x="0px" y="0px" viewBox="0 0 200 224" enable-background="new 0 0 200 224" xml:space="preserve" width="512"
	height="512">
	<g>
		<path fill="#FFFFFF"
			d="M91.748,24c-28.6719,0-52,23.3281-52,52s23.3281,52,52,52s52-23.3281,52-52S120.4199,24,91.748,24z    M121.1699,66.2109l-11.8086,11.5117l2.7852,16.2539c0.2578,1.5-0.3594,3.0156-1.5898,3.9102   c-0.6992,0.5078-1.5234,0.7656-2.3516,0.7656c-0.6367,0-1.2773-0.1523-1.8633-0.4609L91.748,90.5195l-14.5938,7.6719   c-1.3438,0.7148-2.9766,0.5938-4.2148-0.3047c-1.2305-0.8945-1.8477-2.4102-1.5898-3.9102l2.7852-16.2539L62.3262,66.2109   c-1.0898-1.0625-1.4805-2.6523-1.0117-4.0977c0.4727-1.4492,1.7227-2.5039,3.2305-2.7227l16.3164-2.375l7.3008-14.7852   c1.3438-2.7344,5.8281-2.7344,7.1719,0l7.3008,14.7852l16.3164,2.375c1.5078,0.2188,2.7578,1.2734,3.2305,2.7227   C122.6504,63.5586,122.2598,65.1484,121.1699,66.2109z" />
		<path fill="#D0E8FF"
			d="M96.3926,62.4414l-4.6445-9.4062l-4.6445,9.4062c-0.582,1.1797-1.707,2-3.0117,2.1875l-10.3789,1.5117   l7.5117,7.3242c0.9414,0.918,1.3711,2.2422,1.1484,3.5391l-1.7695,10.3359l9.2812-4.8789C90.4707,82.1523,91.1074,82,91.748,82   s1.2773,0.1523,1.8633,0.4609l9.2812,4.8789l-1.7695-10.3359c-0.2227-1.2969,0.207-2.6211,1.1484-3.5391l7.5117-7.3242   l-10.3789-1.5117C98.0996,64.4414,96.9746,63.6211,96.3926,62.4414z" />
		<path fill="#5CB0FF"
			d="M91.748,8c-37.4961,0-68,30.5039-68,68c0,40.0156,51.9219,140,68,140s68-99.9844,68-140   C159.748,38.5039,129.2441,8,91.748,8z M91.748,136c-33.0859,0-60-26.9141-60-60s26.9141-60,60-60s60,26.9141,60,60   S124.834,136,91.748,136z" />
		<path fill="#1C71DA"
			d="M91.748,0c-41.9062,0-76,34.0938-76,76c0,38.9961,52.0742,148,76,148s76-109.0039,76-148   C167.748,34.0938,133.6543,0,91.748,0z M91.748,216c-16.0781,0-68-99.9844-68-140c0-37.4961,30.5039-68,68-68s68,30.5039,68,68   C159.748,116.0156,107.8262,216,91.748,216z" />
		<path fill="#1C71DA"
			d="M91.748,16c-33.0859,0-60,26.9141-60,60s26.9141,60,60,60s60-26.9141,60-60S124.834,16,91.748,16z    M91.748,128c-28.6719,0-52-23.3281-52-52s23.3281-52,52-52s52,23.3281,52,52S120.4199,128,91.748,128z" />
		<path fill="#1C71DA"
			d="M118.9512,59.3906l-16.3164-2.375L95.334,42.2305c-1.3438-2.7344-5.8281-2.7344-7.1719,0l-7.3008,14.7852   l-16.3164,2.375c-1.5078,0.2188-2.7578,1.2734-3.2305,2.7227c-0.4688,1.4453-0.0781,3.0352,1.0117,4.0977l11.8086,11.5117   l-2.7852,16.2539c-0.2578,1.5,0.3594,3.0156,1.5898,3.9102c1.2383,0.8984,2.8711,1.0195,4.2148,0.3047l14.5938-7.6719   l14.5938,7.6719c0.5859,0.3086,1.2266,0.4609,1.8633,0.4609c0.8281,0,1.6523-0.2578,2.3516-0.7656   c1.2305-0.8945,1.8477-2.4102,1.5898-3.9102l-2.7852-16.2539l11.8086-11.5117c1.0898-1.0625,1.4805-2.6523,1.0117-4.0977   C121.709,60.6641,120.459,59.6094,118.9512,59.3906z M102.2715,73.4648c-0.9414,0.918-1.3711,2.2422-1.1484,3.5391l1.7695,10.3359   l-9.2812-4.8789C93.0254,82.1523,92.3887,82,91.748,82s-1.2773,0.1523-1.8633,0.4609l-9.2812,4.8789l1.7695-10.3359   c0.2227-1.2969-0.207-2.6211-1.1484-3.5391l-7.5117-7.3242l10.3789-1.5117c1.3047-0.1875,2.4297-1.0078,3.0117-2.1875   l4.6445-9.4062l4.6445,9.4062c0.582,1.1797,1.707,2,3.0117,2.1875l10.3789,1.5117L102.2715,73.4648z" />
	</g>
</svg>