<?xml version="1.0" encoding="utf-8"?>
<!-- Generator: Adobe Illustrator 19.2.0, SVG Export Plug-In . SVG Version: 6.00 Build 0)  -->
<svg xmlns="http://www.w3.org/2000/svg" xmlns:xlink="http://www.w3.org/1999/xlink" version="1.1" id="networksearch"
	x="0px" y="0px" viewBox="0 0 224.084 232.084" enable-background="new 0 0 224.084 232.084" xml:space="preserve"
	width="512" height="512">
	<g>
		<path fill="#D0E8FF"
			d="M164.084,76V64.4727l-24-12V56c0,2.209-1.791,4-4,4h-4.6982l8.3389,18.3457   c0.2449,0.5381,0.3408,1.0991,0.3401,1.6543h8.0193c2.209,0,4,1.791,4,4v9.2617L176.3965,80h-8.3125   C165.875,80,164.084,78.209,164.084,76z" />
		<rect x="120.084" y="40" fill="#D0E8FF" width="12" height="12" />
		<rect x="128.084" y="88" fill="#D0E8FF" width="16" height="16" />
		<path fill="#5CB0FF"
			d="M77.5488,143.2207L9.6562,211.1133l11.3145,11.3145l67.8926-67.8926c1.5-1.5,2.3262-3.5039,2.3262-5.6426   c0.002-2.1445-0.8281-4.1543-2.3359-5.6621C85.7344,140.1113,80.6602,140.1094,77.5488,143.2207z" />
		<rect x="172.084" y="48" fill="#D0E8FF" width="24" height="24" />
		<path fill="#D0E8FF"
			d="M156.084,8c-33.084,0-60,26.916-60,60s26.916,60,60,60s60-26.916,60-60S189.168,8,156.084,8z M200.084,80   h-6.9792l-41.0208,22.375V108c0,2.209-1.791,4-4,4h-24c-2.209,0-4-1.791-4-4V84c0-2.209,1.791-4,4-4h7.6074l-9.0908-20h-6.5166   c-2.209,0-4-1.791-4-4V36c0-2.209,1.791-4,4-4h20c2.209,0,4,1.791,4,4v7.5273l24,12V44c0-2.209,1.791-4,4-4h32c2.209,0,4,1.791,4,4   v32C204.084,78.209,202.293,80,200.084,80z" />
		<path fill="#1C71DA"
			d="M156.084,0c-37.4961,0-68,30.5039-68,68c0,19.3438,8.1584,36.7832,21.1667,49.1768l-17.9702,17.9707   c-6.1292-3.6035-14.135-2.8389-19.3879,2.417L1.1719,208.2852c-1.5625,1.5625-1.5625,4.0938,0,5.6562l16.9707,16.9707   c0.7812,0.7812,1.8047,1.1719,2.8281,1.1719s2.0469-0.3906,2.8281-1.1719l70.7207-70.7207   c3.0098-3.0098,4.668-7.0215,4.6699-11.2949c0.0027-2.9048-0.8181-5.6611-2.2522-8.0938l18.4526-18.4521   C126.7524,130.8799,140.8142,136,156.084,136c37.4961,0,68-30.5039,68-68S193.5801,0,156.084,0z M88.8633,154.5352   l-67.8926,67.8926L9.6562,211.1133l67.8926-67.8926c3.1113-3.1113,8.1855-3.1094,11.3047,0.0098   c1.5078,1.5078,2.3379,3.5176,2.3359,5.6621C91.1895,151.0312,90.3633,153.0352,88.8633,154.5352z M156.084,128   c-33.084,0-60-26.916-60-60s26.916-60,60-60s60,26.916,60,60S189.168,128,156.084,128z" />
		<path fill="#1C71DA"
			d="M200.084,40h-32c-2.209,0-4,1.791-4,4v11.5273l-24-12V36c0-2.209-1.791-4-4-4h-20c-2.209,0-4,1.791-4,4v20   c0,2.209,1.791,4,4,4h6.5166l9.0908,20h-7.6074c-2.209,0-4,1.791-4,4v24c0,2.209,1.791,4,4,4h24c2.209,0,4-1.791,4-4v-5.625   L193.1047,80h6.9792c2.209,0,4-1.791,4-4V44C204.084,41.791,202.293,40,200.084,40z M120.084,40h12v12h-12V40z M144.084,104h-16V88   h16V104z M152.084,93.2617V84c0-2.209-1.791-4-4-4h-8.0193c0.0007-0.5552-0.0952-1.1162-0.3401-1.6543L131.3857,60h4.6982   c2.209,0,4-1.791,4-4v-3.5273l24,12V76c0,2.209,1.791,4,4,4h8.3125L152.084,93.2617z M196.084,72h-24V48h24V72z" />
	</g>
</svg>