<?xml version="1.0" encoding="utf-8"?>
<!-- Generator: Adobe Illustrator 19.2.0, SVG Export Plug-In . SVG Version: 6.00 Build 0)  -->
<svg xmlns="http://www.w3.org/2000/svg" xmlns:xlink="http://www.w3.org/1999/xlink" version="1.1" id="oldphone" x="0px"
	y="0px" viewBox="0 0 232 224" enable-background="new 0 0 232 224" xml:space="preserve" width="512" height="512">
	<g>
		<polygon fill="#D0E8FF" points="44,87.9629 28,88 28,104.0371 44.0352,104  " />
		<polygon fill="#D0E8FF" points="44,127.9629 28,128 28,144.0371 44.0352,144  " />
		<polygon fill="#D0E8FF" points="100,128 100,144.0371 116.0352,144 116,127.9629  " />
		<polygon fill="#D0E8FF" points="44,47.9629 28,48 28,64.0371 44.0352,64  " />
		<polygon fill="#D0E8FF" points="80,87.9629 64,88 64,104.0371 80.0352,104  " />
		<polygon fill="#D0E8FF" points="80,127.9629 64,128 64,144.0371 80.0352,144  " />
		<polygon fill="#D0E8FF" points="80,47.9629 64,48 64,64.0371 80.0352,64  " />
		<polygon fill="#D0E8FF" points="100,88 100,104.0371 116.0352,104 116,87.9629  " />
		<path fill="#5CB0FF"
			d="M220.0273,8H11.9727C9.7812,8,8,9.7988,8,12.0078v199.9844C8,214.2012,9.7812,216,11.9727,216h208.0547   c2.1914,0,3.9727-1.7988,3.9727-4.0078V12.0078C224,9.7988,222.2188,8,220.0273,8z M56,47.9629C56,43.5723,59.5703,40,63.9609,40   h16.0742C84.4258,40,88,43.5723,88,47.9629v16.0742C88,68.4277,84.4258,72,80.0352,72H63.9609C59.5703,72,56,68.4277,56,64.0371   V47.9629z M56,87.9629C56,83.5723,59.5703,80,63.9609,80h16.0742C84.4258,80,88,83.5723,88,87.9629v16.0742   C88,108.4277,84.4258,112,80.0352,112H63.9609C59.5703,112,56,108.4277,56,104.0371V87.9629z M56,127.9629   C56,123.5723,59.5703,120,63.9609,120h16.0742C84.4258,120,88,123.5723,88,127.9629v16.0742C88,148.4277,84.4258,152,80.0352,152   H63.9609C59.5703,152,56,148.4277,56,144.0371V127.9629z M20,47.9629C20,43.5723,23.5703,40,27.9609,40h16.0742   C48.4258,40,52,43.5723,52,47.9629v16.0742C52,68.4277,48.4258,72,44.0352,72H27.9609C23.5703,72,20,68.4277,20,64.0371V47.9629z    M20,87.9629C20,83.5723,23.5703,80,27.9609,80h16.0742C48.4258,80,52,83.5723,52,87.9629v16.0742   C52,108.4277,48.4258,112,44.0352,112H27.9609C23.5703,112,20,108.4277,20,104.0371V87.9629z M20,144.0371v-16.0742   C20,123.5723,23.5703,120,27.9609,120h16.0742C48.4258,120,52,123.5723,52,127.9629v16.0742C52,148.4277,48.4258,152,44.0352,152   H27.9609C23.5703,152,20,148.4277,20,144.0371z M100,188H42c-2.2109,0-4-1.791-4-4s1.7891-4,4-4h58c2.2109,0,4,1.791,4,4   S102.2109,188,100,188z M100,172H42c-2.2109,0-4-1.791-4-4s1.7891-4,4-4h58c2.2109,0,4,1.791,4,4S102.2109,172,100,172z    M124,144.0371c0,4.3906-3.5742,7.9629-7.9648,7.9629H99.9609C95.5703,152,92,148.4277,92,144.0371v-16.0742   C92,123.5723,95.5703,120,99.9609,120h16.0742c4.3906,0,7.9648,3.5723,7.9648,7.9629V144.0371z M124,104.0371   c0,4.3906-3.5742,7.9629-7.9648,7.9629H99.9609C95.5703,112,92,108.4277,92,104.0371V87.9629C92,83.5723,95.5703,80,99.9609,80   h16.0742C120.4258,80,124,83.5723,124,87.9629V104.0371z M124,64.0371C124,68.4277,120.4258,72,116.0352,72H99.9609   C95.5703,72,92,68.4277,92,64.0371V47.9629C92,43.5723,95.5703,40,99.9609,40h16.0742C120.4258,40,124,43.5723,124,47.9629V64.0371   z M208,168.0254C208,187.8613,191.8516,204,172,204s-36-16.1387-36-35.9746V55.9746C136,36.1387,152.1484,20,172,20   s36,16.1387,36,35.9746V168.0254z" />
		<path fill="#D0E8FF"
			d="M172,28c-15.4375,0-28,12.5488-28,27.9746v112.0508C144,183.4512,156.5625,196,172,196   s28-12.5488,28-27.9746V55.9746C200,40.5488,187.4375,28,172,28z" />
		<polygon fill="#D0E8FF" points="100,48 100,64.0371 116.0352,64 116,47.9629  " />
		<path fill="#1C71DA"
			d="M220.0273,0H11.9727C5.3711,0,0,5.3867,0,12.0078v199.9844C0,218.6133,5.3711,224,11.9727,224h208.0547   C226.6289,224,232,218.6133,232,211.9922V12.0078C232,5.3867,226.6289,0,220.0273,0z M224,211.9922   c0,2.209-1.7812,4.0078-3.9727,4.0078H11.9727C9.7812,216,8,214.2012,8,211.9922V12.0078C8,9.7988,9.7812,8,11.9727,8h208.0547   C222.2188,8,224,9.7988,224,12.0078V211.9922z" />
		<path fill="#1C71DA"
			d="M172,20c-19.8516,0-36,16.1387-36,35.9746v112.0508C136,187.8613,152.1484,204,172,204   s36-16.1387,36-35.9746V55.9746C208,36.1387,191.8516,20,172,20z M200,168.0254C200,183.4512,187.4375,196,172,196   s-28-12.5488-28-27.9746V55.9746C144,40.5488,156.5625,28,172,28s28,12.5488,28,27.9746V168.0254z" />
		<path fill="#1C71DA"
			d="M27.9609,72h16.0742C48.4258,72,52,68.4277,52,64.0371V47.9629C52,43.5723,48.4258,40,44.0352,40H27.9609   C23.5703,40,20,43.5723,20,47.9629v16.0742C20,68.4277,23.5703,72,27.9609,72z M28,48l16-0.0371L44.0352,64L28,64.0371V48z" />
		<path fill="#1C71DA"
			d="M63.9609,72h16.0742C84.4258,72,88,68.4277,88,64.0371V47.9629C88,43.5723,84.4258,40,80.0352,40H63.9609   C59.5703,40,56,43.5723,56,47.9629v16.0742C56,68.4277,59.5703,72,63.9609,72z M64,48l16-0.0371L80.0352,64L64,64.0371V48z" />
		<path fill="#1C71DA"
			d="M116.0352,40H99.9609C95.5703,40,92,43.5723,92,47.9629v16.0742C92,68.4277,95.5703,72,99.9609,72h16.0742   C120.4258,72,124,68.4277,124,64.0371V47.9629C124,43.5723,120.4258,40,116.0352,40z M100,64.0371V48l16-0.0371L116.0352,64   L100,64.0371z" />
		<path fill="#1C71DA"
			d="M27.9609,112h16.0742C48.4258,112,52,108.4277,52,104.0371V87.9629C52,83.5723,48.4258,80,44.0352,80   H27.9609C23.5703,80,20,83.5723,20,87.9629v16.0742C20,108.4277,23.5703,112,27.9609,112z M28,88l16-0.0371L44.0352,104   L28,104.0371V88z" />
		<path fill="#1C71DA"
			d="M63.9609,112h16.0742C84.4258,112,88,108.4277,88,104.0371V87.9629C88,83.5723,84.4258,80,80.0352,80   H63.9609C59.5703,80,56,83.5723,56,87.9629v16.0742C56,108.4277,59.5703,112,63.9609,112z M64,88l16-0.0371L80.0352,104   L64,104.0371V88z" />
		<path fill="#1C71DA"
			d="M116.0352,80H99.9609C95.5703,80,92,83.5723,92,87.9629v16.0742C92,108.4277,95.5703,112,99.9609,112   h16.0742c4.3906,0,7.9648-3.5723,7.9648-7.9629V87.9629C124,83.5723,120.4258,80,116.0352,80z M100,104.0371V88l16-0.0371   L116.0352,104L100,104.0371z" />
		<path fill="#1C71DA"
			d="M52,144.0371v-16.0742C52,123.5723,48.4258,120,44.0352,120H27.9609C23.5703,120,20,123.5723,20,127.9629   v16.0742C20,148.4277,23.5703,152,27.9609,152h16.0742C48.4258,152,52,148.4277,52,144.0371z M28,128l16-0.0371L44.0352,144   L28,144.0371V128z" />
		<path fill="#1C71DA"
			d="M63.9609,152h16.0742C84.4258,152,88,148.4277,88,144.0371v-16.0742C88,123.5723,84.4258,120,80.0352,120   H63.9609C59.5703,120,56,123.5723,56,127.9629v16.0742C56,148.4277,59.5703,152,63.9609,152z M64,128l16-0.0371L80.0352,144   L64,144.0371V128z" />
		<path fill="#1C71DA"
			d="M116.0352,120H99.9609C95.5703,120,92,123.5723,92,127.9629v16.0742C92,148.4277,95.5703,152,99.9609,152   h16.0742c4.3906,0,7.9648-3.5723,7.9648-7.9629v-16.0742C124,123.5723,120.4258,120,116.0352,120z M100,144.0371V128l16-0.0371   L116.0352,144L100,144.0371z" />
		<path fill="#1C71DA"
			d="M100,164H42c-2.2109,0-4,1.791-4,4s1.7891,4,4,4h58c2.2109,0,4-1.791,4-4S102.2109,164,100,164z" />
		<path fill="#1C71DA"
			d="M100,180H42c-2.2109,0-4,1.791-4,4s1.7891,4,4,4h58c2.2109,0,4-1.791,4-4S102.2109,180,100,180z" />
	</g>
</svg>